<?xml version="1.0" encoding="UTF-8"?>
<svg id="_레이어_1" data-name="레이어 1" xmlns="http://www.w3.org/2000/svg" viewBox="0 0 24.01 24.01">
  <path d="M2.53,20.44c.3-4.27,2.22-8.4,4.47-11.98,1.08-1.71,2.57-3.53,4.51-4.3.18-.07.63-.28.84-.22.17.05.04-.29.1.21.01.11,0,.24,0,.35-.01.62-.08,1.23-.2,1.83-.21,1.1-.56,2.18-.95,3.23-.75,2.02-1.68,3.98-2.14,6.09-.16.72-.53,1.92.18,2.46.61.47,1.49.23,2.07-.17,1.52-1.04,2.24-3.01,3.27-4.47.35-.5,1.41-2,2.16-1.68.93.4.13,2.6-.03,3.28-.39,1.64-1.64,4.69.47,5.66,1.73.79,3.87-.03,5.04-1.42.41-.49-.29-1.2-.71-.71-.55.66-1.41,1.21-2.25,1.38-.97.2-2.24-.04-2.27-1.22-.03-1.06.38-2.17.62-3.19s.63-2.12.49-3.18c-.1-.77-.54-1.59-1.41-1.64s-1.61.61-2.15,1.18c-1.32,1.4-1.95,3.31-3.26,4.71-.26.28-.76.79-1.19.73-.31-.05-.28-.24-.24-.54s.1-.61.17-.91c.23-1.05.57-2.08.96-3.08.79-2.09,1.74-4.14,2.15-6.36.1-.54.17-1.09.2-1.64.02-.45.09-.98-.08-1.41-.33-.83-1.56-.47-2.17-.23-1.86.72-3.37,2.32-4.5,3.91-1.37,1.94-2.47,4.13-3.39,6.32s-1.59,4.57-1.77,6.99c-.05.64.95.64,1,0h0Z"/>
</svg>